<svg width="23" height="17" viewBox="0 0 23 17" fill="none" xmlns="http://www.w3.org/2000/svg"><path d="M10.5614 5.76318C10.2845 5.48301 10.2845 5.0288 10.5614 4.74863C10.8383 4.46846 11.2872 4.46846 11.5641 4.74863L13.9038 7.11594L16.2433 4.74863C16.5202 4.46846 16.9691 4.46846 17.246 4.74863C17.5228 5.02874 17.5228 5.48301 17.246 5.76318L14.9063 8.13043L17.246 10.4977C17.5228 10.7779 17.5228 11.2321 17.246 11.5122C16.9691 11.7924 16.5202 11.7924 16.2433 11.5122L13.9038 9.14499L11.5641 11.5122C11.2872 11.7924 10.8383 11.7924 10.5615 11.5122C10.2845 11.2321 10.2845 10.7779 10.5615 10.4977L12.9011 8.13049L10.5614 5.76318Z" fill="currentColor"></path><path fill-rule="evenodd" clip-rule="evenodd" d="M7.63745 0.840459L0.432739 8.13043L7.63745 15.4204C8.16932 15.9586 8.89067 16.2609 9.64283 16.2609H19.3394C20.9057 16.2609 22.1754 14.9761 22.1754 13.3913V2.86957C22.1754 1.28474 20.9057 0 19.3394 0H9.64283C8.89067 0 8.16932 0.302358 7.63745 0.840459ZM19.3394 15.0174H9.64283C9.21655 15.0174 8.80781 14.8461 8.50639 14.5411L2.17074 8.13043L8.50639 1.71974C8.80781 1.41482 9.21655 1.24347 9.64283 1.24347H19.3394C20.2269 1.24347 20.9464 1.97148 20.9464 2.86957V13.3913C20.9464 14.2894 20.2269 15.0174 19.3394 15.0174Z" fill="currentColor"></path></svg>