<svg width="68" height="60" viewBox="0 0 68 60" fill="none" xmlns="http://www.w3.org/2000/svg" role="img"><path fill-rule="evenodd" clip-rule="evenodd" d="M66.1889 28.0644L67.0588 25.2739L64.1796 25.3653C63.9366 25.3653 62.1686 25.3137 60.4529 24.0685C60.5814 24.0793 60.7083 24.0984 60.8401 24.0984C62.6056 24.0984 64.3156 23.0333 64.9997 21.5089L66.2378 18.7566C64.6838 18.7774 63.2641 18.5805 63.2641 18.5805C63.2525 18.5797 62.133 18.4343 60.8393 17.1093C59.9114 16.1606 58.7628 15.658 57.5189 15.658C56.9741 15.658 56.4873 15.7568 56.0677 15.8897C56.134 15.6663 56.1946 15.4403 56.2319 15.2069C56.6266 12.6307 54.9731 10.6668 54.9722 10.6685L52.8062 7.98183L51.4636 11.1378C51.4594 11.1478 51.1194 11.888 50.5141 12.2486C50.3316 11.3206 49.8813 10.278 48.9211 9.28113C47.1091 7.4028 44.9041 7.12118 43.7506 7.12118C43.2157 7.12118 42.8334 7.18016 42.7413 7.19512L40.1275 7.71018C40.2784 7.12533 40.6002 6.10517 41.1873 5.18886L42.6294 2.93836L39.0005 3.35124L37.8437 0.892224L35.6055 2.04863L33.5348 0L31.4708 2.04863L29.2267 0.892224L28.0732 3.35124L24.4452 2.9367L25.8898 5.18969C26.4777 6.10517 26.7978 7.12284 26.9471 7.70603L24.4526 7.21339L24.3672 7.2001C24.242 7.18016 23.863 7.12118 23.3257 7.12118C22.1722 7.12118 19.968 7.4028 18.1602 9.28029C17.1982 10.2764 16.7471 11.3206 16.563 12.2486C15.9609 11.8913 15.6243 11.1628 15.6243 11.1628L14.2792 7.98848L12.08 10.6917C11.8104 11.0398 10.4853 12.8866 10.8452 15.2102C10.8825 15.442 10.943 15.6663 11.0077 15.8897C10.5906 15.756 10.1038 15.658 9.55981 15.658C8.31508 15.658 7.16654 16.1606 6.23693 17.1093C4.94659 18.4285 3.83454 18.578 3.84366 18.578C3.84366 18.578 2.6661 18.7907 0.845025 18.7566L2.07649 21.5089C2.76229 23.0333 4.47308 24.0984 6.23527 24.0984C6.36796 24.0984 6.49483 24.0793 6.62503 24.0685C4.91342 25.3137 3.14542 25.3653 2.93147 25.3661L0 25.2739L0.888147 28.0635C1.33595 29.5016 2.82864 31.8833 5.68795 32.14C5.37698 33.4459 4.68786 34.9106 3.17361 35.5403L0.988488 36.4416L2.18015 38.5202C2.85186 39.6408 4.43078 40.9518 6.67727 40.9518C7.16322 40.9501 7.63259 40.9011 8.08537 40.8047C8.20064 41.3165 8.34493 41.8299 8.51576 42.3391C9.18415 44.3346 8.60781 45.7252 8.60201 45.741L7.52313 48.004L9.93049 48.6395C9.96035 48.6487 10.6876 48.8497 11.5982 48.8497C12.0103 48.8497 12.4067 48.8065 12.7757 48.7176C13.0552 48.652 13.3247 48.5656 13.5834 48.4601C13.8952 49.02 14.2734 49.5309 14.7145 49.9886C16.257 51.5745 18.4438 52.3779 21.2119 52.3779H21.221L23.198 52.3521L19.1138 54.0535L22.2145 55.5547C23.3414 56.1046 24.6766 56.7551 26.0374 57.2527L25.6501 58.3136L26.7182 58.8021C26.8136 58.8453 28.8693 59.7657 32.2851 59.9618C32.2851 59.9618 33.1094 60 33.5638 60C34.0174 60 34.8326 59.9593 34.8326 59.9593C38.226 59.7583 40.2651 58.8453 40.3605 58.8021L41.4319 58.3128L41.0413 57.2502C42.4395 56.7377 43.8252 56.0614 44.9049 55.5331L47.9483 54.0518L43.8774 52.3521L45.8627 52.3779C48.635 52.3779 50.8217 51.5737 52.3617 49.9862C52.8012 49.5326 53.1785 49.0225 53.492 48.4601C53.7515 48.5656 54.0227 48.652 54.303 48.7193C54.6712 48.8065 55.0668 48.8497 55.4789 48.8497C56.3737 48.8497 57.1093 48.6511 57.1283 48.6445L59.5465 48.004L58.4933 45.7826C58.4684 45.7252 57.8921 44.3346 58.5605 42.3375C58.7305 41.8282 58.8739 41.3156 58.9909 40.8047C59.4445 40.9011 59.918 40.9501 60.4081 40.9518C63.2707 40.9518 64.6432 38.9347 64.9085 38.4969L66.0877 36.44L63.9043 35.5419C62.3859 34.9106 61.6976 33.4468 61.3899 32.1417C64.2119 31.8958 65.7254 29.5115 66.1889 28.0644Z" fill="#FFFFFE"></path><path fill-rule="evenodd" clip-rule="evenodd" d="M33.5355 8.54614C31.2226 8.54863 29.4878 9.30711 29.1113 10.201L33.5355 11.9506L37.9613 10.201C37.5865 9.30711 35.8516 8.54863 33.5355 8.54614Z" fill="#FFFFFE"></path><path fill-rule="evenodd" clip-rule="evenodd" d="M33.5823 54.8501H33.4936C32.0921 54.8592 30.1607 54.5718 29.2328 54.2993L28.1133 57.3316C28.8505 57.5949 31.3499 58.0992 33.54 58.0992C35.726 58.0992 38.2262 57.5949 38.9626 57.3316L37.8456 54.2993C36.9127 54.5718 34.9838 54.8592 33.5823 54.8501Z" fill="#FFFFFE"></path><path fill-rule="evenodd" clip-rule="evenodd" d="M42.0477 51.833C41.2152 52.3049 39.3559 53.0143 38.2754 53.3433L39.1826 55.848C40.8552 55.3903 42.2368 54.8561 43.3762 54.2829L41.4921 53.6557L42.0477 51.833Z" fill="#FFFFFE"></path><path fill-rule="evenodd" clip-rule="evenodd" d="M25.0267 51.833L25.584 53.6557L23.6982 54.2829C24.836 54.8561 26.2234 55.3903 27.8902 55.848L28.7991 53.3433C27.7202 53.0143 25.8585 52.3049 25.0267 51.833Z" fill="#FFFFFE"></path><path fill-rule="evenodd" clip-rule="evenodd" d="M33.5358 5.64667C35.2798 5.64667 36.9889 6.06454 38.3041 6.79809C38.4244 6.39517 38.5927 5.90503 38.8207 5.3908L38.3224 5.45061L37.8016 5.50544L37.581 5.02942L36.9151 3.62213L35.7035 4.25516L35.2308 4.49525L34.8535 4.12308L33.5358 2.81714L32.2206 4.12308L31.8449 4.49525L31.3731 4.25516L30.1541 3.62213L29.4981 5.02942L29.2725 5.50544L28.7518 5.45061L28.2559 5.3908C28.4839 5.90503 28.6506 6.39517 28.7725 6.79809C30.0927 6.06454 31.8002 5.64667 33.5358 5.64667Z" fill="#FFFFFE"></path><path fill-rule="evenodd" clip-rule="evenodd" d="M60.1565 21.9119C60.3829 21.99 60.6126 22.0248 60.8406 22.0248C61.8275 22.0248 62.7803 21.3852 63.1078 20.6549C63.1078 20.6549 61.3 20.5453 59.3554 18.5673C58.7359 17.9268 58.0808 17.7349 57.5186 17.7349C56.6454 17.7349 55.9902 18.1959 55.9902 18.1959C58.3396 19.4495 58.8189 21.4591 60.1565 21.9119Z" fill="#FFFFFE"></path><path fill-rule="evenodd" clip-rule="evenodd" d="M6.23431 22.0248C6.46236 22.0248 6.6929 21.99 6.91431 21.911C8.25524 21.4591 8.7387 19.4495 11.0847 18.1968C11.0847 18.1968 10.4279 17.7349 9.55968 17.7349C8.99412 17.7349 8.33983 17.9268 7.71787 18.5681C5.77573 20.5453 3.96875 20.6558 3.96875 20.6558C4.29299 21.3852 5.24831 22.0248 6.23431 22.0248Z" fill="#FFFFFE"></path><path fill-rule="evenodd" clip-rule="evenodd" d="M59.4468 36.3437C57.6299 35.4457 56.4813 33.0631 56.2044 32.205C55.9025 36.9302 53.6005 40.2084 50.9095 43.3652C49.513 45.0018 49.0254 46.5927 49.0254 46.5927C49.0254 46.5927 49.2949 44.79 50.5023 43.3229C53.0133 40.3014 55.4 36.5381 55.5774 32.1883C55.6993 29.1511 54.9207 26.6896 53.7041 24.6601C54.3849 26.7735 54.2879 29.3613 51.9784 31.7771C51.9784 31.7771 56.5775 26.2568 50.1474 20.5969C47.575 18.4428 44.758 17.1127 43.3092 16.1707C48.5461 17.882 51.1035 15.9979 51.1035 15.9979C49.4317 17.45 47.2665 17.4251 45.9231 17.2158C46.288 17.3935 46.6669 17.5796 47.0741 17.7989C51.49 20.2015 55.458 24.155 56.1347 29.6296V29.5881C57.1613 34.9639 59.4468 36.3437 59.4468 36.3437ZM60.7919 30.0799C60.8325 30.0824 60.8673 30.0824 60.9088 30.0824C63.3701 30.0824 64.2043 27.4414 64.2043 27.4414H64.1562C63.7043 27.4414 60.0447 27.3351 57.4574 24.0412C55.7557 21.8754 54.3592 19.9713 51.6036 19.222L51.3324 19.1738L51.2735 18.8972C51.1972 18.476 51.4867 18.0797 52.1409 17.6536C55.9448 15.1588 53.3608 11.9762 53.3608 11.9762C53.3608 11.9762 52.2753 14.5208 49.8455 14.5208C49.7867 14.5208 49.7253 14.5175 49.6648 14.5175C49.3894 14.5034 49.1224 14.4934 48.8546 14.4361L48.4068 14.3488C48.4068 14.3488 49.1 12.4605 47.4274 10.7276C46.1677 9.41917 44.6352 9.19653 43.7504 9.19653C43.3043 9.19653 43.0215 9.25386 43.0215 9.25386C43.8615 10.3538 44.4686 12.1798 43.4991 13.3062C42.6607 14.2741 40.6133 14.3206 40.6133 15.7636C40.6133 16.375 41.183 17.0878 42.2063 17.7283C45.2837 19.6698 48.3388 22.2468 49.61 25.6994C51.1972 30.0051 49.4085 32.8646 46.856 34.5036C46.856 34.5036 47.6571 35.2422 48.8172 35.3369C49.0544 35.3593 49.2849 35.3701 49.4997 35.3701C51.951 35.3701 53.219 34.2187 53.219 34.2187C53.219 34.2187 53.0092 35.8096 51.7346 37.2866C50.557 38.6499 49.0138 39.4541 46.6562 39.4873C46.6562 39.4873 46.5824 40.5822 47.6256 41.5309C48.294 42.1291 49.8348 42.3235 49.8348 42.3235C49.8348 42.3235 46.9481 42.91 46.6296 47.1817C46.4563 49.4962 45.8659 50.3003 45.8659 50.3003H45.9173C52.6169 50.3003 52.4453 44.5441 52.4453 44.5441C52.4453 44.5441 52.9113 46.2488 54.7805 46.6932C55.0061 46.7522 55.2474 46.7755 55.4771 46.7755C56.0783 46.7755 56.6016 46.6334 56.6016 46.6334C56.6016 46.6334 55.6222 44.5657 56.5933 41.673C57.3985 39.2721 57.2691 37.4935 57.2691 37.4935C57.2691 37.4935 58.1706 38.8609 60.4096 38.8734H60.432C62.2953 38.8734 63.1072 37.4586 63.1072 37.4586C58.6408 35.6002 59.0819 29.6055 59.0819 29.6055C59.0819 29.6055 59.6616 30.0392 60.7919 30.0799Z" fill="#FFFFFE"></path><path fill-rule="evenodd" clip-rule="evenodd" d="M16.1638 43.3652C13.4729 40.2084 11.1716 36.9302 10.8673 32.205C10.5895 33.0631 9.44509 35.4457 7.629 36.3437C7.629 36.3437 9.91197 34.9639 10.9378 29.5881V29.6296C11.6169 24.1558 15.5842 20.2015 20.0009 17.7998C20.4055 17.5788 20.7878 17.3935 21.1502 17.2166C19.8076 17.4251 17.6424 17.45 15.9714 15.9979C15.9714 15.9979 18.5289 17.882 23.7641 16.1707C22.3153 17.1136 19.5008 18.4428 16.9284 20.5969C10.4966 26.2568 15.0966 31.7779 15.0966 31.7779C12.7837 29.3613 12.6909 26.7743 13.3709 24.6601C12.1527 26.6896 11.374 29.1511 11.4992 32.1883C11.675 36.5381 14.0608 40.3006 16.5669 43.3237C17.7801 44.79 18.0529 46.5919 18.0529 46.5919C18.0529 46.5919 17.5595 45.0018 16.1638 43.3652ZM17.2402 42.3235C17.2402 42.3235 18.7818 42.1299 19.4511 41.5301C20.4934 40.5822 20.4188 39.4873 20.4188 39.4873C18.0612 39.4541 16.5188 38.6499 15.3346 37.2875C14.0674 35.8096 13.8568 34.2187 13.8568 34.2187C13.8568 34.2187 15.1239 35.3701 17.5719 35.3701C17.7917 35.3701 18.0206 35.3593 18.2569 35.3369C19.4187 35.2422 20.2223 34.5045 20.2223 34.5045C17.6673 32.8646 15.8777 30.006 17.4633 25.6994C18.7346 22.2476 21.7888 19.6698 24.8678 17.7275C25.8895 17.0878 26.4592 16.375 26.4592 15.7636C26.4592 14.3206 24.4142 14.2741 23.5767 13.3062C22.6073 12.1798 23.2143 10.3538 24.0527 9.25386C24.0527 9.25386 23.7732 9.19653 23.3246 9.19653C22.4406 9.19653 20.9089 9.41917 19.6492 10.7276C17.9733 12.4605 18.6682 14.3488 18.6682 14.3488L18.2204 14.4361C17.9534 14.4926 17.6839 14.5034 17.4094 14.5183C17.3464 14.5183 17.2908 14.5208 17.2319 14.5208C14.7955 14.5208 13.7158 11.977 13.7158 11.977C13.7158 11.977 11.1335 15.1588 14.9357 17.6536C15.59 18.0797 15.8777 18.476 15.8014 18.8972L15.7426 19.173L15.4664 19.222C12.7149 19.9713 11.3176 21.8754 9.61344 24.0412C7.02778 27.3343 3.37319 27.4414 2.91792 27.4414H2.86816C2.86816 27.4414 3.70241 30.0824 6.16534 30.0824C6.20431 30.0824 6.2408 30.0824 6.28226 30.0799C7.41422 30.0392 7.9947 29.6055 7.9947 29.6055C7.9947 29.6055 8.43256 35.6002 3.96777 37.4578C3.96777 37.4578 4.78129 38.8742 6.64383 38.8742H6.66621C8.90607 38.8609 9.80666 37.4935 9.80666 37.4935C9.80666 37.4935 9.67646 39.273 10.4792 41.673C11.4503 44.5665 10.4759 46.6342 10.4759 46.6342C10.4759 46.6342 10.9967 46.7755 11.5979 46.7755C11.8309 46.7755 12.0697 46.7522 12.2936 46.6932C14.1603 46.2488 14.628 44.5441 14.628 44.5441C14.628 44.5441 14.4572 50.3003 21.1577 50.3003H21.2058C21.2058 50.3003 20.6195 49.4962 20.447 47.1809C20.1294 42.91 17.2402 42.3235 17.2402 42.3235Z" fill="#FFFFFE"></path><path fill-rule="evenodd" clip-rule="evenodd" d="M32.0236 21.1117H35.1823V22.1975C34.8108 21.7414 34.0876 21.8344 34.0876 21.8344V23.3996C34.0876 23.3996 34.1142 24.1697 34.3845 24.5028H32.8213C33.095 24.1697 33.1191 23.3996 33.1191 23.3996V21.8344C33.1191 21.8344 32.3984 21.7414 32.0236 22.1975V21.1117ZM28.5821 21.2745C28.6924 21.3925 28.8002 21.5204 28.9047 21.65C28.9296 21.6799 28.952 21.7065 28.9769 21.7414C29.0731 21.8693 29.1701 22.0056 29.2638 22.1443C29.2845 22.1717 29.3044 22.2049 29.3268 22.2365C29.4388 22.4068 29.5449 22.5821 29.6502 22.7632C30.6172 24.4347 32.1629 25.4332 33.5353 25.4357C34.9094 25.4332 36.4535 24.4347 37.423 22.7632C37.5299 22.5771 37.6386 22.3977 37.7505 22.229C37.7671 22.2049 37.7853 22.18 37.8003 22.1551C37.8965 22.0114 37.996 21.8718 38.1005 21.7364C38.1229 21.7065 38.1436 21.6799 38.1635 21.655C38.2713 21.5204 38.3824 21.3908 38.496 21.2703C38.5151 21.2512 38.5317 21.233 38.5499 21.2172C39.0425 20.7121 39.6288 20.3274 40.3975 20.1148L40.0551 19.9146H40.036L38.676 19.1237L37.2787 18.322L33.5453 20.3582L33.5353 20.3499L33.5287 20.3582L29.7945 18.322L28.398 19.1237L27.0355 19.9146H27.0198L26.6748 20.1148C27.4435 20.3274 28.0282 20.7079 28.5224 21.2139C28.544 21.233 28.5589 21.2554 28.5821 21.2745Z" fill="#FFFFFE"></path><path fill-rule="evenodd" clip-rule="evenodd" d="M32.3468 14.2115V15.2334L32.1511 15.1436C32.1419 15.1362 31.8542 15.0714 31.3533 14.6734C30.5265 14.0313 30.5099 13.4381 30.5099 13.4381L32.3468 14.2115ZM33.2133 19.0058V12.6497L29.1748 11.2773L30.2396 17.4365L33.2133 19.0058Z" fill="#FFFFFE"></path><path fill-rule="evenodd" clip-rule="evenodd" d="M34.7294 14.2115L36.5663 13.4381C36.5663 13.4381 36.5505 14.0313 35.7204 14.6734C35.2212 15.0714 34.9334 15.1362 34.9235 15.1436L34.7294 15.2334V14.2115ZM36.8349 17.4365L37.8964 11.2773L33.8604 12.6497V19.0058L36.8349 17.4365Z" fill="#FFFFFE"></path><path fill-rule="evenodd" clip-rule="evenodd" d="M27.5016 33.7401C27.8939 33.883 28.3715 33.9129 28.6162 33.9129C28.6253 33.883 28.6386 33.8456 28.6502 33.7999C28.6717 33.7276 28.6925 33.6554 28.7074 33.5764C28.7762 33.2242 28.8003 32.8263 28.8061 32.5687C28.641 32.4649 28.4064 32.2821 28.2753 32.008C28.1261 31.6923 27.9113 31.5444 27.5995 31.5444C27.1931 31.5444 26.7578 31.7895 26.5695 31.9041C26.4211 32.7831 27.0679 33.5798 27.5016 33.7401Z" fill="#FFFFFE"></path><path fill-rule="evenodd" clip-rule="evenodd" d="M36.4352 30.3689C35.6855 31.1864 34.216 32.6086 34.1455 32.6792L34.0568 32.7689L29.4179 32.6958C29.4146 33.1561 29.3399 33.5473 29.2678 33.8348C29.2562 33.8821 29.2429 33.932 29.2305 33.9818L34.7484 34.9762C35.3223 34.5741 36.902 33.4177 37.5165 32.965C37.0704 32.312 37.0281 31.5378 37.1284 30.9928C36.8349 30.8059 36.6126 30.5932 36.4352 30.3689Z" fill="#FFFFFE"></path><path fill-rule="evenodd" clip-rule="evenodd" d="M37.0636 24.7786C35.9947 25.8403 34.9697 26.2349 34.0542 26.3254C33.8867 26.3429 33.7192 26.3537 33.5492 26.3537H33.5259C33.3551 26.3537 33.1859 26.3429 33.0209 26.3254C32.86 26.3113 32.6925 26.2855 32.5242 26.2473C32.4645 26.4866 32.3882 26.985 32.6054 27.4594C32.7995 27.8881 33.1934 28.2071 33.7681 28.4206L33.9613 28.4962L33.9646 28.7047C33.9646 28.7662 34.0102 30.1186 35.4805 30.4941C35.721 30.2466 35.9391 30.0222 36.1008 29.8345C35.8006 29.1259 35.9582 28.4023 36.3944 28.0484C36.3753 28.1232 36.1837 29.8976 37.6034 30.5573L37.8373 30.6686L37.7676 30.9178C37.7444 30.9926 37.2709 32.7106 38.9908 33.3494L39.2952 33.4649L39.16 33.7606C39.1301 33.8263 38.4559 35.3839 40.044 36.2695H43.4871V33.5305C42.2623 33.381 41.7448 32.3949 41.6105 31.697C41.0408 31.599 40.6013 31.3531 40.2986 30.9519C39.5763 29.999 40.1974 29.1259 40.2057 29.0785C40.204 29.086 40.2057 30.0148 40.7779 30.5888C41.0623 30.8646 41.3974 31.0798 41.9057 31.128L42.1561 31.1504L42.1777 31.4071C42.1818 31.4611 42.3195 32.7197 43.4871 32.9166L43.4846 27.3215C43.4846 26.455 43.7367 25.5836 44.0402 24.7786H37.0636Z" fill="#FFFFFE"></path><path fill-rule="evenodd" clip-rule="evenodd" d="M27.7959 27.3423L27.7021 30.9045L28.1068 30.9668L29.0953 27.5483L28.5936 26.4966L27.7959 27.3423Z" fill="#FFFFFE"></path><path fill-rule="evenodd" clip-rule="evenodd" d="M29.9369 40.5313C29.8216 40.528 29.7371 40.4299 29.7445 40.3145C29.7536 40.204 29.8473 40.1167 29.961 40.1267C30.0771 40.1309 30.1583 40.2331 30.155 40.3419C30.1442 40.4549 30.0472 40.5413 29.9369 40.5313ZM38.6932 43.6848C38.7238 43.6848 38.7578 43.689 38.791 43.6973C39.4063 43.8734 39.5614 46.094 40.6403 46.2917C40.7464 46.3141 40.8434 46.3208 40.9289 46.3208C41.2415 46.3208 41.4273 46.1879 41.6279 45.9503C41.6279 45.9503 41.0848 45.0963 40.6793 44.5189C40.1394 43.7646 39.7214 42.8532 38.7172 42.8532C38.6932 42.8532 38.6641 42.8532 38.6393 42.8566C38.3092 42.8732 38.1052 43.0352 38.1052 43.0352C37.698 42.7785 37.3191 42.6921 36.9774 42.6921C36.3488 42.6921 35.8595 42.9812 35.6141 42.9812H35.605L33.3626 42.7594C33.0127 42.7253 32.7349 42.3714 32.6353 42.2335C32.6105 42.1953 32.5964 42.1737 32.5964 42.1737C32.5964 42.1122 32.5964 42.0499 32.5931 41.9942C32.5176 40.1575 31.0979 39.3716 30.592 39.3591C30.592 39.3591 30.6517 39.0094 30.5157 38.8764L30.0198 39.4779L28.3986 38.6621L29.5563 40.0171L28.5761 41.1195C28.4525 41.2449 28.4683 41.4144 28.5197 41.4867L28.9426 41.8613L29.48 41.5348C29.5065 41.5149 29.5563 41.5083 29.6151 41.5083C29.7636 41.5083 29.9867 41.5473 30.1865 41.5473C30.4063 41.5473 30.5945 41.5008 30.6177 41.2948C30.5506 41.976 29.9195 43.159 30.3333 44.0894L30.641 44.7914L28.6582 44.5056L27.7302 46.0749C27.4441 46.5974 27.3993 47.1623 27.6747 47.4705L28.0213 47.905C28.0213 47.905 28.5089 47.3883 28.6175 47.0477L28.46 46.8741C28.3273 46.7278 28.3339 46.5974 28.4152 46.4404L28.9973 45.4734L31.3367 46.0259L31.4603 45.8149C31.6195 45.5498 31.8484 45.4718 32.0988 45.4718C32.2025 45.4718 32.3078 45.4842 32.4181 45.5017C32.8526 45.5872 33.5674 45.7027 34.2823 45.7027C35.0659 45.7027 35.8446 45.5623 36.2601 45.0963C37.1076 46.3548 38.825 46.5551 38.6898 47.1947L38.2371 49.3514C38.5364 49.3381 38.825 49.319 39.0987 49.2807L39.5291 47.0377C39.5763 46.7926 39.6211 46.4645 39.6211 46.4645C39.4561 46.2959 39.0547 45.9403 38.8283 45.5075C38.5256 44.9243 38.6898 44.6194 38.4079 43.8609C38.4079 43.8609 38.495 43.6848 38.6932 43.6848Z" fill="#FFFFFE"></path><path fill-rule="evenodd" clip-rule="evenodd" d="M26.7414 45.7249C26.7414 45.7249 27.5176 45.4051 27.5864 45.1775L27.4828 44.9183C27.409 44.7488 27.4189 44.5661 27.5616 44.4672L28.3983 43.8865L29.7964 44.1565C29.7964 44.1565 29.5435 43.8383 29.5684 43.4146L28.2333 43.1313L26.9744 43.8998C26.4346 44.3035 26.3956 44.9648 26.5739 45.3569L26.7414 45.7249Z" fill="#FFFFFE"></path><path fill-rule="evenodd" clip-rule="evenodd" d="M36.6357 49.3798C36.8854 49.3699 37.1632 49.3657 37.4658 49.3657C37.4658 49.3657 38.1856 47.2564 38.2263 47.19C37.8233 47.0114 36.9849 46.5661 36.6614 46.3625C36.8762 46.6832 37.3945 47.0479 37.2917 47.3304L36.6357 49.3798Z" fill="#FFFFFE"></path><path fill-rule="evenodd" clip-rule="evenodd" d="M43.4863 36.8738H23.5889V44.3713C23.5889 47.4384 25.8038 49.3574 29.0728 49.3574C31.8028 49.3574 32.5234 49.4646 33.5393 50.474C34.2392 49.7745 34.818 49.5136 36.0072 49.4164L36.0354 49.3001L36.6623 47.3578C36.6275 47.3138 35.6017 46.1474 35.6017 46.1474C35.1953 46.2828 34.8537 46.3053 34.2806 46.3053C33.691 46.3053 33.0276 46.2363 32.3053 46.1009C32.2332 46.0843 32.1652 46.0768 32.098 46.0768C32.0093 46.0768 32.0035 46.0843 31.9802 46.1275L31.8558 46.3335L31.6278 46.7115L31.1982 46.6118L29.2884 46.1616L29.0264 46.5944L29.0654 46.6409L29.2976 46.8976L29.1947 47.2316C29.0538 47.6685 28.5985 48.1786 28.4592 48.3198L27.9823 48.8324L27.547 48.2816L27.2202 47.8712C26.8769 47.4858 26.7973 46.8976 26.9905 46.2795C26.9864 46.2828 26.9797 46.2862 26.9715 46.287L26.4333 46.5105L26.1911 45.9829L26.0211 45.6091C25.7284 44.9511 25.8362 43.99 26.6257 43.4084L28.1623 42.5387L29.6251 42.8269C29.6599 42.6865 29.7122 42.1831 29.7545 42.0552C29.7255 42.0518 29.6997 42.0452 29.6707 42.0452L28.8282 42.3609L28.0147 41.7985C28.0147 41.7985 27.6971 41.4919 27.9857 41.1854L28.7718 39.9907L26.7774 37.4827L29.8424 38.7438L30.0472 38.4912L30.4602 37.9945L30.9304 38.4422C31.0631 38.5702 31.1394 38.728 31.1767 38.8859C32.0209 39.2157 33.5351 40.1876 33.6686 41.7685L33.1951 41.958V41.9696C33.3038 42.0984 33.3933 42.1515 33.4215 42.1565L35.6091 42.3717C35.6655 42.3625 35.7335 42.3376 35.8115 42.3152C36.0843 42.2221 36.4915 42.0876 36.9758 42.0876C37.3705 42.0876 37.7511 42.1781 38.1177 42.3501C38.2528 42.2986 38.4187 42.2612 38.6111 42.2487L38.7164 42.2462C39.8873 42.2462 40.4703 43.1227 40.9372 43.823C41.0151 43.9443 41.0931 44.0581 41.1743 44.1711C41.5823 44.7493 42.1172 45.595 42.1388 45.6315L42.3801 46.0087L42.0849 46.3535C41.8577 46.6168 41.5152 46.9267 40.9289 46.9267C40.8078 46.9267 40.6751 46.9134 40.5325 46.886C40.4081 46.8627 40.2937 46.8253 40.1842 46.7788C40.1684 46.8951 40.1436 47.033 40.122 47.1518L39.7389 49.1572C42.0335 48.5923 43.4905 46.8569 43.4905 44.3713L43.4863 36.8738Z" fill="#FFE52B"></path><path fill-rule="evenodd" clip-rule="evenodd" d="M23.5893 36.2695H39.0651C38.2922 35.4695 38.3038 34.4568 38.5003 33.7988C38.2748 33.6908 38.089 33.5612 37.924 33.4184C37.3186 33.8653 35.4727 35.2119 34.99 35.5492L34.8864 35.619L28.8128 34.5191H28.6901C28.5441 34.5191 28.331 34.5133 28.0972 34.485C28.0316 34.7608 27.7953 34.9478 27.525 34.9478C27.4935 34.9478 27.4595 34.9453 27.4279 34.9386C27.2696 34.9112 27.1311 34.8306 27.039 34.6977C26.9445 34.5664 26.9072 34.4111 26.9329 34.2508L26.9553 34.1195C26.33 33.6775 25.7512 32.6898 26.0074 31.6489L26.0323 31.5392L26.121 31.4752C26.1335 31.4661 26.2379 31.3938 26.3955 31.3049L25.9543 31.2368C25.7893 31.2077 25.6782 31.0532 25.7039 30.8904C25.7321 30.7251 25.8872 30.6071 26.0497 30.6387L27.1012 30.8048L27.1974 27.0964L28.7614 25.4382L29.7383 27.4976L28.7075 31.0657L29.6371 31.2119C29.8005 31.2376 29.9124 31.3913 29.8876 31.56C29.8635 31.7095 29.7358 31.81 29.5898 31.81C29.5741 31.81 29.5575 31.81 29.5417 31.8084L28.7863 31.6862C28.7962 31.7095 28.8112 31.7228 28.8203 31.7461C28.9007 31.913 29.079 32.031 29.1835 32.0833L33.8133 32.1573C34.0098 31.9662 34.495 31.4894 34.9958 30.9851C33.8556 30.5514 33.4418 29.5687 33.373 28.9149C32.7361 28.6432 32.2966 28.2361 32.0528 27.707C31.7559 27.0515 31.8612 26.3944 31.9408 26.0754C31.323 25.8502 30.6745 25.4382 30.0111 24.7786H23.0361C23.3355 25.5836 23.5893 26.455 23.5893 27.3215V36.2695Z" fill="#FFE52B"></path><path fill-rule="evenodd" clip-rule="evenodd" d="M29.9601 40.1266C29.8465 40.1158 29.7527 40.2041 29.7436 40.3158C29.7362 40.4316 29.8207 40.53 29.936 40.5325C30.0463 40.5416 30.1433 40.4566 30.1541 40.3425C30.1574 40.2333 30.0762 40.1308 29.9601 40.1266Z" fill="#1A1919"></path><path fill-rule="evenodd" clip-rule="evenodd" d="M39.184 55.8488L38.2751 53.3441C39.3564 53.0143 41.2157 52.3048 42.0491 51.833L41.4935 53.6556L43.3759 54.2828C42.2373 54.8552 40.8566 55.3894 39.184 55.8488ZM33.5408 58.1001C31.3498 58.1001 28.8504 57.595 28.1132 57.3325L29.2327 54.2994C30.1607 54.5711 32.092 54.8594 33.4935 54.8502H33.5822C34.9837 54.8594 36.9126 54.5711 37.8455 54.2994L38.9625 57.3325C38.2261 57.595 35.7259 58.1001 33.5408 58.1001ZM23.6998 54.2828L25.5856 53.6556L25.0275 51.833C25.8593 52.3048 27.7218 53.0143 28.8007 53.3441L27.891 55.8488C26.2241 55.3894 24.8376 54.8552 23.6998 54.2828ZM43.4605 53.7262L42.3144 53.2859L42.6312 52.0988L42.9795 50.8062C42.9795 50.8062 40.9486 51.9102 38.086 52.7385C37.2741 52.9711 36.6597 53.0782 36.6597 53.0782V53.9588C36.6597 53.9588 35.1288 54.2247 33.5822 54.2247H33.4935C31.9453 54.2247 30.4169 53.9588 30.4169 53.9588V53.0782C30.4169 53.0782 29.8008 52.9711 28.9898 52.7385C26.1279 51.9102 24.0987 50.8062 24.0987 50.8062L24.442 52.0988L24.7655 53.2859L23.6153 53.7262L22.3398 54.2031C23.801 54.9109 25.8269 55.9393 27.6803 56.4478L27.2433 57.6449C27.2433 57.6449 29.5943 58.7174 33.5109 58.7273V58.7298H33.564V58.7273C37.4848 58.7174 39.8341 57.6449 39.8341 57.6449L39.3946 56.4478C41.2488 55.9393 43.2781 54.9109 44.7326 54.2031L43.4605 53.7262Z" fill="#1A1919"></path><path fill-rule="evenodd" clip-rule="evenodd" d="M28.7513 5.45032L29.2721 5.50515L29.4976 5.02913L30.1536 3.62267L31.3726 4.25404L31.8444 4.49579L33.5353 2.81602L34.853 4.12279L35.2304 4.49579L35.703 4.25404L36.9146 3.62267L37.5805 5.02913L37.8011 5.50515L38.3219 5.45032L38.8203 5.39051C38.5922 5.90474 38.4239 6.39405 38.3036 6.79863C36.9884 6.06425 35.2793 5.64638 33.5353 5.64638C31.7997 5.64638 30.0922 6.06425 28.772 6.79863C28.6501 6.39405 28.4834 5.90474 28.2554 5.39051L28.7513 5.45032ZM33.5353 6.37993C35.8689 6.37993 37.7356 7.15502 38.7672 7.97995C38.7672 7.97995 39.0732 6.13237 40.1189 4.50244L38.2398 4.71677L37.2563 2.62411L35.368 3.59941L33.5353 1.78589L31.7084 3.59941L29.8161 2.62411L28.8342 4.71677L26.9551 4.50244C28.0016 6.13237 28.3068 7.97995 28.3068 7.97995C29.345 7.15502 31.2059 6.37993 33.5353 6.37993Z" fill="#1A1919"></path><path fill-rule="evenodd" clip-rule="evenodd" d="M63.1086 37.4579C63.1086 37.4579 62.2967 38.8743 60.4325 38.8743H60.4093C58.1719 38.861 57.2697 37.4936 57.2697 37.4936C57.2697 37.4936 57.399 39.2722 56.5938 41.6731C55.6228 44.5666 56.6021 46.6335 56.6021 46.6335C56.6021 46.6335 56.0788 46.7756 55.4776 46.7756C55.2479 46.7756 55.0074 46.7523 54.781 46.6933C52.9119 46.2489 52.4458 44.5442 52.4458 44.5442C52.4458 44.5442 52.6175 50.3004 45.9178 50.3004H45.8656C45.8656 50.3004 46.456 49.4963 46.6302 47.1818C46.9486 42.9101 49.8353 42.3236 49.8353 42.3236C49.8353 42.3236 48.2945 42.13 47.6269 41.531C46.5829 40.5823 46.6567 39.4874 46.6567 39.4874C49.0135 39.4542 50.5584 38.65 51.7351 37.2868C53.0097 35.8097 53.2195 34.2188 53.2195 34.2188C53.2195 34.2188 51.9516 35.3702 49.5011 35.3702C49.2855 35.3702 49.0549 35.3594 48.8186 35.337C47.6585 35.2423 46.8574 34.5046 46.8574 34.5046C49.409 32.8647 51.1986 30.0052 49.6114 25.6995C48.3393 22.2477 45.2843 19.6699 42.2077 17.7276C41.1843 17.0879 40.6138 16.3751 40.6138 15.7629C40.6138 14.3207 42.6613 14.2742 43.4997 13.3064C44.4691 12.1799 43.8612 10.3539 43.022 9.25397C43.022 9.25397 43.3048 9.19664 43.7509 9.19664C44.6358 9.19664 46.1683 9.41929 47.4279 10.7277C49.0997 12.4607 48.4065 14.3489 48.4065 14.3489L48.8543 14.4362C49.1221 14.4927 49.3891 14.5035 49.6661 14.5176C49.7258 14.5176 49.7872 14.5209 49.8461 14.5209C52.2758 14.5209 53.3622 11.9763 53.3622 11.9763C53.3622 11.9763 55.9445 15.1589 52.1415 17.6537C51.4872 18.0798 51.1986 18.4761 51.2741 18.8973L51.3338 19.1739L51.6041 19.2221C54.3606 19.9706 55.7554 21.8764 57.4588 24.0413C60.0461 27.3352 63.7048 27.4416 64.1559 27.4416H64.2049C64.2049 27.4416 63.3706 30.0825 60.9093 30.0825C60.8679 30.0825 60.833 30.0825 60.7924 30.08C59.6621 30.0393 59.0816 29.6056 59.0816 29.6056C59.0816 29.6056 58.6413 35.6003 63.1086 37.4579ZM60.9093 30.8908C63.9262 30.8908 64.9363 27.8162 64.9777 27.6841L65.3152 26.6L64.1841 26.6357H64.18C63.7811 26.6357 60.4516 26.5468 58.0915 23.542L57.8684 23.2629C56.326 21.299 54.864 19.4298 52.2485 18.5775C52.3239 18.5085 52.4326 18.4254 52.581 18.3282C53.9692 17.4144 54.7761 16.3037 54.9784 15.0144C55.2753 13.0754 54.0397 11.5286 53.9858 11.4654L53.1457 10.4245L52.6208 11.659C52.5851 11.7362 51.7036 13.7126 49.8461 13.7126H49.7076C49.5807 13.7059 49.4588 13.701 49.3402 13.691C49.4049 12.8096 49.2448 11.4455 48.0092 10.1645C46.524 8.62426 44.7029 8.39331 43.7509 8.39331C43.2418 8.39331 42.9034 8.45645 42.8661 8.45977L41.5982 8.71232L42.3802 9.74577C42.9946 10.5425 43.5511 12.0129 42.891 12.7805C42.6795 13.0256 42.2458 13.2233 41.8304 13.4227C40.9762 13.8156 39.8086 14.3664 39.8086 15.7629C39.8086 16.6667 40.5093 17.613 41.7789 18.4171C45.5355 20.7839 47.8533 23.2537 48.8543 25.9803C50.4033 30.1739 48.3824 32.5656 46.4204 33.8267L45.5397 34.3933L46.3109 35.1027C46.4145 35.1941 47.3558 36.0257 48.7489 36.1453C49.0126 36.1627 49.2647 36.1769 49.5011 36.1769C50.3926 36.1769 51.153 36.0365 51.7708 35.8479C51.6016 36.1453 51.391 36.4502 51.1289 36.7559C50.0078 38.0577 48.6279 38.65 46.6434 38.6824L45.9062 38.694L45.8498 39.4351C45.8424 39.5846 45.7876 40.9587 47.0846 42.1267C47.2836 42.3078 47.5233 42.4565 47.7754 42.5778C46.8947 43.372 46.0007 44.7552 45.8274 47.1236C45.6806 49.1008 45.2105 49.8327 45.2046 49.8402L44.3903 51.0863L45.8631 51.1063C48.2962 51.1063 50.1595 50.4342 51.4507 49.1008C52.2136 48.3125 52.6506 47.4219 52.9077 46.6335C53.3315 46.9949 53.878 47.3122 54.5911 47.4809C54.8615 47.544 55.1567 47.5789 55.4776 47.5789C56.1651 47.5789 56.7406 47.4327 56.8045 47.4169L57.7449 47.1669L57.3294 46.2879C57.2987 46.2173 56.5142 44.452 57.3584 41.9356C57.7216 40.8465 57.9074 39.872 57.9978 39.1127C58.5899 39.4218 59.3835 39.6768 60.4085 39.6801C62.7362 39.6801 63.7629 37.9381 63.8085 37.865L64.267 37.0649L63.417 36.7144C60.6431 35.5605 60.0287 32.4618 59.9059 30.7845C60.1564 30.8335 60.4433 30.8775 60.7667 30.8867L60.9093 30.8908Z" fill="#1A1919"></path><path fill-rule="evenodd" clip-rule="evenodd" d="M57.5188 17.7349C58.081 17.7349 58.7361 17.9268 59.3556 18.5681C61.3002 20.5453 63.1089 20.6558 63.1089 20.6558C62.7805 21.3852 61.8277 22.0249 60.8408 22.0249C60.6128 22.0249 60.3831 21.99 60.1567 21.9111C58.8182 21.4591 58.3398 19.4495 55.9904 18.1968C55.9904 18.1968 56.6456 17.7349 57.5188 17.7349ZM55.6073 18.9112C56.7326 19.5119 57.3886 20.3168 57.9633 21.0305C58.5288 21.7275 59.0637 22.397 59.9038 22.6762C60.2015 22.7784 60.5182 22.8274 60.8408 22.8274C62.0988 22.8274 63.3643 22.0556 63.8436 20.9864L64.3263 19.9156L63.1586 19.8458C63.1039 19.845 61.6021 19.7071 59.9328 17.9982C59.2453 17.2962 58.4136 16.9282 57.5188 16.9282C56.425 16.9282 55.614 17.4757 55.5244 17.5322L54.4521 18.289L55.6073 18.9112Z" fill="#1A1919"></path><path fill-rule="evenodd" clip-rule="evenodd" d="M56.135 29.588V29.6296C55.4584 24.1549 51.4903 20.2014 47.0744 17.7989C46.6664 17.5795 46.2883 17.3935 45.9234 17.2157C47.2668 17.425 49.4321 17.45 51.1039 15.9978C51.1039 15.9978 48.5464 17.8819 43.3096 16.1706C44.7583 17.1127 47.5753 18.4427 50.1485 20.5968C56.577 26.2567 51.9779 31.777 51.9779 31.777C54.2883 29.3612 54.3845 26.7734 53.7045 24.66C54.921 26.6895 55.6988 29.151 55.5778 32.1883C55.4011 36.5381 53.0137 40.3005 50.5026 43.3228C49.2961 44.7899 49.0265 46.5926 49.0265 46.5926C49.0265 46.5926 49.5133 45.0017 50.9098 43.3652C53.6016 40.2083 55.9028 36.9302 56.2047 32.2049C56.4825 33.063 57.6294 35.4456 59.448 36.3437C59.448 36.3437 57.1625 34.9638 56.135 29.588Z" fill="#1A1919"></path><path fill-rule="evenodd" clip-rule="evenodd" d="M21.158 50.3004C14.4575 50.3004 14.6283 44.5442 14.6283 44.5442C14.6283 44.5442 14.1606 46.2489 12.2939 46.6933C12.07 46.7523 11.8312 46.7756 11.5982 46.7756C10.9969 46.7756 10.4762 46.6335 10.4762 46.6335C10.4762 46.6335 11.4505 44.5666 10.4795 41.6731C9.67674 39.2731 9.80694 37.4936 9.80694 37.4936C9.80694 37.4936 8.90635 38.861 6.66649 38.8743H6.6441C4.78157 38.8743 3.96805 37.4579 3.96805 37.4579C8.43201 35.6003 7.99498 29.6056 7.99498 29.6056C7.99498 29.6056 7.4145 30.0393 6.28254 30.08C6.24108 30.0825 6.20459 30.0825 6.16562 30.0825C3.70269 30.0825 2.86844 27.4416 2.86844 27.4416H2.9182C3.37347 27.4416 7.02806 27.3344 9.61372 24.0413C11.3179 21.8755 12.7144 19.9715 15.4667 19.2221L15.7428 19.1731L15.8017 18.8973C15.878 18.4761 15.5903 18.0798 14.936 17.6537C11.1338 15.1589 13.7161 11.9772 13.7161 11.9772C13.7161 11.9772 14.7958 14.5209 17.2322 14.5209C17.2911 14.5209 17.3466 14.5184 17.4097 14.5184C17.6833 14.5035 17.9537 14.4927 18.2207 14.4362L18.6685 14.3489C18.6685 14.3489 17.9727 12.4607 19.6495 10.7277C20.9092 9.41929 22.44 9.19664 23.3248 9.19664C23.7735 9.19664 24.0521 9.25397 24.0521 9.25397C23.2146 10.3539 22.6075 12.1799 23.5761 13.3064C24.4145 14.2742 26.4595 14.3207 26.4595 15.7629C26.4595 16.3751 25.8898 17.0879 24.8681 17.7276C21.789 19.6699 18.7348 22.2477 17.4636 25.6995C15.878 30.0061 17.6676 32.8647 20.2226 34.5046C20.2226 34.5046 19.419 35.2423 18.2572 35.337C18.0208 35.3594 17.792 35.3702 17.5722 35.3702C15.1242 35.3702 13.8571 34.2188 13.8571 34.2188C13.8571 34.2188 14.0677 35.8097 15.3348 37.2876C16.519 38.65 18.0615 39.4542 20.4191 39.4874C20.4191 39.4874 20.4937 40.5823 19.4513 41.5302C18.7821 42.13 17.2405 42.3236 17.2405 42.3236C17.2405 42.3236 20.1297 42.9101 20.4473 47.181C20.6198 49.4963 21.2061 50.3004 21.2061 50.3004H21.158ZM21.8703 49.8402C21.8678 49.8327 21.4001 49.1008 21.25 47.1236C21.075 44.7544 20.1811 43.372 19.2979 42.5778C19.5533 42.4565 19.7897 42.3078 19.9887 42.1267C21.2857 40.9587 21.2309 39.5846 21.2218 39.4351L21.1721 38.694L20.429 38.6824C18.4504 38.65 17.068 38.0577 15.9468 36.7559C15.6865 36.4502 15.4758 36.1453 15.305 35.8479C15.922 36.0365 16.6774 36.1769 17.5722 36.1769C17.8119 36.1769 18.0615 36.1627 18.3252 36.1453C19.7184 36.0257 20.6612 35.1949 20.7657 35.1027L21.5369 34.3933L20.6571 33.8267C18.6876 32.5656 16.6749 30.1739 18.2207 25.9803C19.2225 23.2537 21.5369 20.7839 25.2993 18.4171C26.5689 17.613 27.2639 16.6667 27.2639 15.7629C27.2639 14.3664 26.0996 13.8156 25.2454 13.4227C24.8291 13.2233 24.3954 13.0256 24.1848 12.7805C23.523 12.0129 24.0803 10.5425 24.6948 9.74577L25.4826 8.71232L24.2072 8.45977C24.1699 8.45562 23.8357 8.39331 23.3248 8.39331C22.3728 8.39331 20.5551 8.62426 19.0707 10.1645C17.8334 11.4463 17.6709 12.8096 17.7347 13.691C17.6153 13.701 17.4951 13.7059 17.3682 13.7126H17.2322C15.3697 13.7126 14.4898 11.7362 14.4558 11.659L13.9325 10.4245L13.0842 11.4654C13.0369 11.5286 11.798 13.0754 12.0999 15.0144C12.2997 16.3037 13.1083 17.4144 14.4956 18.3282C14.6465 18.4254 14.7519 18.5085 14.8273 18.5775C12.2085 19.4298 10.7482 21.299 9.20572 23.2629L8.98347 23.542C6.62669 26.5468 3.28971 26.6357 2.89083 26.6357L1.75391 26.6L2.09971 27.6841C2.14035 27.8162 3.14625 30.8908 6.16562 30.8908L6.31074 30.8867C6.63084 30.8775 6.91693 30.8335 7.17152 30.7845C7.04713 32.4609 6.43098 35.5605 3.65625 36.7144L2.80874 37.0649L3.26732 37.865C3.31127 37.9381 4.34123 39.6801 6.67313 39.6801C7.6923 39.6768 8.48508 39.4218 9.07801 39.1136C9.16757 39.872 9.35416 40.8465 9.7182 41.9356C10.5624 44.452 9.77625 46.2173 9.7464 46.2879L9.32928 47.1669L10.2713 47.4169C10.3335 47.4327 10.9132 47.5789 11.5982 47.5789C11.9183 47.5789 12.2143 47.544 12.4822 47.4809C13.1962 47.3122 13.7485 46.9949 14.1681 46.6335C14.4235 47.4219 14.8622 48.3125 15.6234 49.1008C16.9179 50.4342 18.7796 51.1063 21.2119 51.1063L22.6855 51.0863L21.8703 49.8402Z" fill="#1A1919"></path><path fill-rule="evenodd" clip-rule="evenodd" d="M7.71791 18.5674C8.33986 17.9269 8.99415 17.7342 9.55972 17.7342C10.428 17.7342 11.0856 18.1969 11.0856 18.1969C8.73874 19.4497 8.25445 21.4593 6.91435 21.912C6.69293 21.991 6.46323 22.0242 6.23435 22.0242C5.24835 22.0242 4.29386 21.3853 3.96796 20.6559C3.96796 20.6559 5.77576 20.5454 7.71791 18.5674ZM6.23435 22.8275C6.55776 22.8275 6.87371 22.7793 7.17225 22.6772C8.01396 22.3972 8.54884 21.7284 9.11357 21.0306C9.69157 20.3178 10.3401 19.512 11.4662 18.9114L12.6247 18.2891L11.5491 17.5315C11.4596 17.475 10.6527 16.9292 9.55972 16.9292C8.66245 16.9292 7.82986 17.2964 7.14323 17.9984C5.47142 19.7081 3.97376 19.8451 3.91986 19.8468L2.75391 19.9157L3.23239 20.9874C3.7142 22.0558 4.97718 22.8275 6.23435 22.8275Z" fill="#1A1919"></path><path fill-rule="evenodd" clip-rule="evenodd" d="M11.499 32.1883C11.3737 29.151 12.1524 26.6895 13.3706 24.66C12.6914 26.7734 12.7835 29.3612 15.0972 31.7779C15.0972 31.7779 10.4964 26.2567 16.929 20.5968C19.5006 18.4427 22.3151 17.1127 23.7638 16.1706C18.5287 17.8819 15.972 15.9978 15.972 15.9978C17.6422 17.45 19.8082 17.425 21.1508 17.2157C20.7876 17.3935 20.4061 17.5787 20.0006 17.7989C15.5831 20.2014 11.6175 24.1549 10.9375 29.6296V29.588C9.91174 34.9638 7.62793 36.3437 7.62793 36.3437C9.44486 35.4456 10.5892 33.063 10.8679 32.2049C11.1714 36.9302 13.4726 40.2083 16.1636 43.3652C17.5601 45.0017 18.0518 46.5926 18.0518 46.5926C18.0518 46.5926 17.779 44.7899 16.5666 43.3228C14.0597 40.3014 11.6748 36.5381 11.499 32.1883Z" fill="#1A1919"></path><path fill-rule="evenodd" clip-rule="evenodd" d="M32.0234 21.1121V22.1978C32.3983 21.7418 33.1189 21.8348 33.1189 21.8348V23.3999C33.1189 23.3999 33.0949 24.17 32.8212 24.5032H34.3844C34.114 24.17 34.0875 23.3999 34.0875 23.3999V21.8348C34.0875 21.8348 34.8106 21.7418 35.1821 22.1978V21.1121H32.0234Z" fill="#1A1919"></path><path fill-rule="evenodd" clip-rule="evenodd" d="M31.3531 14.6736C31.8532 15.0707 32.1418 15.1371 32.1509 15.1429L32.3466 15.2335V14.2117L30.5098 13.4382C30.5098 13.4382 30.5255 14.0306 31.3531 14.6736Z" fill="#1A1919"></path><path fill-rule="evenodd" clip-rule="evenodd" d="M35.7195 14.6736C36.5496 14.0306 36.5653 13.4382 36.5653 13.4382L34.7285 14.2117V15.2335L34.9226 15.1429C34.9325 15.1371 35.2203 15.0707 35.7195 14.6736Z" fill="#1A1919"></path><path fill-rule="evenodd" clip-rule="evenodd" d="M33.5355 11.9511L29.1114 10.1999C29.4879 9.30771 31.2227 8.5484 33.5355 8.54591C35.8517 8.5484 37.5865 9.30771 37.9614 10.1999L33.5355 11.9511ZM36.8344 17.4366L33.8606 19.0067V12.6498L37.8958 11.2774L36.8344 17.4366ZM38.6762 19.1238L40.0362 19.9147H40.0553L40.3969 20.1149C39.629 20.3276 39.0427 20.7122 38.5501 21.2173C38.5319 21.2331 38.5161 21.2514 38.4962 21.2705C38.3835 21.3909 38.2715 21.5205 38.1637 21.6551C38.1446 21.68 38.1231 21.7066 38.1007 21.7365C37.9962 21.872 37.8958 22.0115 37.8013 22.1552C37.7855 22.1802 37.7673 22.2051 37.7507 22.2292C37.6388 22.3978 37.5301 22.5773 37.4232 22.7633C36.4546 24.4348 34.9096 25.4334 33.5355 25.4359C32.1631 25.4334 30.6173 24.4348 29.6504 22.7633C29.5451 22.5822 29.439 22.407 29.327 22.2367C29.3046 22.2051 29.2847 22.1719 29.264 22.1444C29.1694 22.0057 29.0733 21.8695 28.9771 21.7415C28.9522 21.7066 28.9298 21.68 28.9049 21.6501C28.7996 21.5205 28.6918 21.3926 28.5823 21.2746C28.5591 21.2555 28.5433 21.2331 28.5234 21.214C28.0284 20.7081 27.4437 20.3276 26.675 20.1149L27.02 19.9147H27.0357L28.3982 19.1238L29.7955 18.3222L33.5289 20.3583L33.5355 20.35L33.5463 20.3583L37.2789 18.3222L38.6762 19.1238ZM44.0407 24.7787C43.7364 25.5837 43.4843 26.4552 43.4843 27.3217L43.4868 32.9159C42.32 32.7199 42.1823 31.4613 42.1774 31.4065L42.1558 31.1506L41.9045 31.1282C41.3978 31.0791 41.0612 30.8648 40.7776 30.589C40.2054 30.0158 40.2045 29.087 40.2054 29.0787C40.1971 29.126 39.5759 29.9983 40.2974 30.9512C40.6009 31.3525 41.0413 31.6 41.6101 31.6972C41.7436 32.395 42.2628 33.3811 43.4868 33.5315V36.2697H40.0436C38.4564 35.3841 39.129 33.8273 39.1596 33.76L39.294 33.4651L38.9905 33.3496C37.2706 32.7107 37.7449 30.9927 37.7673 30.9188L37.837 30.6679L37.6023 30.5574C36.1834 29.8978 36.375 28.1225 36.394 28.0477C35.957 28.4033 35.8003 29.1261 36.1005 29.8355C35.9379 30.0224 35.7198 30.2467 35.4802 30.4951C34.0099 30.1196 33.9643 28.7663 33.9643 28.704L33.961 28.4955L33.7677 28.4207C33.1939 28.2081 32.8 27.8882 32.6051 27.4596C32.3878 26.9844 32.4641 26.4868 32.5238 26.2467C32.6922 26.2857 32.8597 26.3115 33.0197 26.3256C33.1856 26.3422 33.3548 26.353 33.5256 26.353H33.5488C33.7188 26.353 33.8872 26.3422 34.053 26.3256C34.9694 26.2342 35.9943 25.8404 37.0633 24.7787H44.0407ZM39.7385 49.1579L40.1233 47.1508C40.1432 47.0328 40.168 46.8949 40.1846 46.7795C40.2941 46.8252 40.4077 46.8617 40.5321 46.885C40.6764 46.9124 40.8082 46.9265 40.9285 46.9265C41.5156 46.9265 41.8581 46.6175 42.0853 46.3533L42.3797 46.0094L42.1392 45.6314C42.1176 45.594 41.5836 44.7491 41.1739 44.1709C41.0927 44.0571 41.0164 43.9441 40.9384 43.822C40.4716 43.1225 39.8877 42.2461 38.716 42.2461L38.6115 42.2486C38.4191 42.261 38.2533 42.2992 38.1189 42.3499C37.7507 42.1779 37.3709 42.0882 36.9762 42.0882C36.4911 42.0882 36.0847 42.222 35.8127 42.3142C35.7348 42.3366 35.6651 42.3615 35.6104 42.3723L33.4211 42.1563C33.3937 42.1505 33.305 42.0982 33.1955 41.9694V41.9586L33.6691 41.7684C33.5355 40.1875 32.0205 39.2155 31.1763 38.8857C31.1398 38.7278 31.0635 38.57 30.9308 38.4412L30.4606 37.9943L30.0468 38.4911L29.8436 38.7436L26.7778 37.4826L28.7722 39.9906L27.9853 41.1852C27.6975 41.4909 28.0151 41.7991 28.0151 41.7991L28.8286 42.3599L29.6712 42.045C29.7002 42.045 29.7259 42.0517 29.7549 42.055C29.7134 42.1829 29.6604 42.6864 29.6255 42.8268L28.1627 42.5393L26.6261 43.4083C25.8358 43.9898 25.728 44.951 26.0215 45.6098L26.1915 45.9828L26.4337 46.5103L26.9719 46.2877C26.9793 46.2852 26.9868 46.2827 26.9918 46.2785C26.7986 46.8974 26.8773 47.4856 27.2215 47.8711L27.5482 48.2823L27.9828 48.8322L28.4596 48.3188C28.5989 48.1793 29.055 47.6684 29.1943 47.2314L29.298 46.8974L29.0658 46.6407L29.0268 46.5942L29.2889 46.1614L31.1978 46.6125L31.6282 46.7113L31.8563 46.3333L31.9807 46.1282C32.0047 46.0841 32.0097 46.0775 32.0984 46.0775C32.1664 46.0775 32.2336 46.0841 32.3066 46.1007C33.0272 46.237 33.6914 46.3043 34.2811 46.3043C34.8533 46.3043 35.1957 46.2827 35.6029 46.1473C35.6029 46.1473 36.6279 47.3136 36.6635 47.3585L36.035 49.2991L36.0076 49.4163C34.8184 49.5126 34.2396 49.7743 33.5397 50.4738C32.5238 49.4644 31.804 49.3581 29.0732 49.3581C25.8043 49.3581 23.5885 47.4382 23.5885 44.3711V36.8736H43.4868L43.4909 44.3711C43.4909 46.8567 42.0339 48.5922 39.7385 49.1579ZM27.4827 44.9186L27.5864 45.1778C27.5175 45.4046 26.7413 45.7252 26.7413 45.7252L26.5738 45.3572C26.3955 44.9651 26.4337 44.3038 26.9744 43.8993L28.2332 43.1316L29.5683 43.4149C29.5434 43.8394 29.7964 44.1568 29.7964 44.1568L28.3982 43.8876L27.5615 44.4667C27.4189 44.5663 27.4089 44.7491 27.4827 44.9186ZM39.5278 47.0378L39.0991 49.28C38.8238 49.3191 38.5352 49.339 38.2367 49.3506L38.6895 47.1957C38.8238 46.5552 37.1072 46.3558 36.2589 45.0964C35.8451 45.5624 35.0655 45.702 34.2811 45.702C33.5662 45.702 32.8522 45.5882 32.4177 45.5018C32.3074 45.4843 32.2021 45.4719 32.0984 45.4719C31.848 45.4719 31.6191 45.55 31.4607 45.815L31.3363 46.026L28.997 45.4744L28.4148 46.4397C28.3335 46.5967 28.3269 46.728 28.4596 46.8742L28.6172 47.047C28.5085 47.3884 28.0217 47.9051 28.0217 47.9051L27.6743 47.4698C27.399 47.1616 27.4437 46.5967 27.7307 46.0742L28.6586 44.5049L30.6406 44.7915L30.3329 44.0887C29.9191 43.1582 30.5502 41.9761 30.6173 41.2949C30.5941 41.5009 30.4051 41.5474 30.1861 41.5474C29.9863 41.5474 29.7632 41.5092 29.6148 41.5092C29.5559 41.5092 29.5061 41.515 29.4796 41.5349L28.9422 41.8614L28.5193 41.4859C28.4679 41.4145 28.4521 41.245 28.5757 41.1187L29.5559 40.0172L28.3982 38.6614L30.0194 39.478L30.5153 38.8765C30.6513 39.0103 30.5916 39.3592 30.5916 39.3592C31.0975 39.3717 32.5172 40.1576 32.5927 41.9935C32.5968 42.05 32.5968 42.1123 32.5968 42.173C32.5968 42.173 32.6101 42.1962 32.635 42.2336C32.7345 42.3723 33.0123 42.7262 33.3631 42.7586L35.6046 42.9813H35.6137C35.8592 42.9813 36.3484 42.6922 36.9762 42.6922C37.3187 42.6922 37.6985 42.7794 38.104 43.0353C38.104 43.0353 38.3088 42.8733 38.6389 42.8567C38.6637 42.8533 38.6928 42.8533 38.716 42.8533C39.7211 42.8533 40.139 43.7638 40.6789 44.5198C41.0844 45.0964 41.6267 45.9504 41.6267 45.9504C41.4269 46.188 41.2411 46.3209 40.9285 46.3209C40.8431 46.3209 40.746 46.3142 40.6399 46.2926C39.561 46.0933 39.4059 43.8727 38.7906 43.6974C38.7575 43.6882 38.7243 43.6849 38.6928 43.6849C38.4946 43.6849 38.4083 43.861 38.4083 43.861C38.6895 44.6187 38.5244 44.9244 38.8279 45.5076C39.0535 45.9404 39.4557 46.296 39.6207 46.4646C39.6207 46.4646 39.5759 46.7928 39.5278 47.0378ZM37.4646 49.3656C37.1628 49.3656 36.885 49.3697 36.6354 49.3797L37.2921 47.3311C37.3941 47.047 36.8758 46.6823 36.6611 46.3624C36.9845 46.566 37.8229 47.0121 38.2259 47.1899C38.1853 47.2563 37.4646 49.3656 37.4646 49.3656ZM27.7016 30.9047L27.7953 27.3433L28.5931 26.4976L29.094 27.5485L28.1063 30.967L27.7016 30.9047ZM28.2755 32.0079C28.4057 32.2821 28.6404 32.4648 28.8054 32.5687C28.7996 32.8262 28.7755 33.2241 28.7084 33.5764C28.6918 33.6553 28.6719 33.7276 28.6503 33.7998C28.6387 33.8455 28.6254 33.8829 28.6163 33.9128C28.3717 33.9128 27.894 33.8829 27.5018 33.74C27.0681 33.5797 26.4212 32.783 26.5705 31.9041C26.7579 31.7894 27.1925 31.5444 27.5996 31.5444C27.9123 31.5444 28.1262 31.6922 28.2755 32.0079ZM37.516 32.9649C36.9024 33.4177 35.3218 34.5741 34.7479 34.9754L29.2292 33.9818C29.2424 33.9328 29.2557 33.8829 29.2673 33.8347C29.3394 33.5473 29.4141 33.156 29.4174 32.6949L34.0563 32.7697L34.1451 32.6792C34.2155 32.6086 35.685 31.1863 36.4338 30.368C36.6121 30.5923 36.8344 30.8058 37.1271 30.9927C37.0276 31.5377 37.0699 32.312 37.516 32.9649ZM30.0112 24.7787C30.6746 25.4392 31.3239 25.8496 31.9409 26.0755C31.8613 26.3945 31.7559 27.0525 32.0528 27.708C32.2958 28.2363 32.7361 28.6434 33.373 28.915C33.4427 29.5688 33.8556 30.5516 34.9959 30.9844C34.4958 31.4895 34.0099 31.9655 33.8134 32.1575L29.1844 32.0843C29.0799 32.032 28.8999 31.9132 28.8203 31.7462C28.8112 31.7221 28.7963 31.7097 28.7863 31.6864L29.5418 31.8085C29.5575 31.811 29.5741 31.811 29.5899 31.811C29.7358 31.811 29.8627 31.7097 29.8868 31.5593C29.9116 31.3923 29.8005 31.2378 29.6372 31.2121L28.7084 31.065L29.7383 27.4978L28.7623 25.4392L27.1974 27.0965L27.1012 30.8058L26.0497 30.638C25.8872 30.6064 25.7321 30.7252 25.7031 30.8906C25.6782 31.0534 25.7893 31.2087 25.9544 31.2378L26.3955 31.3051C26.238 31.3948 26.1335 31.4663 26.1211 31.4762L26.0323 31.5385L26.0074 31.649C25.752 32.69 26.33 33.6777 26.9553 34.1197L26.9329 34.2509C26.9072 34.4113 26.9437 34.5675 27.0399 34.6979C27.1311 34.8316 27.2696 34.9114 27.4272 34.9396C27.4595 34.9454 27.4943 34.9479 27.5242 34.9479C27.7953 34.9479 28.0317 34.7602 28.098 34.486C28.3302 34.5135 28.5433 34.5193 28.6893 34.5193H28.8137L34.8864 35.6192L34.9901 35.5502C35.4735 35.2113 37.3187 33.8646 37.9232 33.4185C38.0899 33.5623 38.2756 33.6918 38.5004 33.7998C38.3038 34.457 38.2922 35.4696 39.0659 36.2697H23.5885V27.3217C23.5885 26.4552 23.3355 25.5837 23.0362 24.7787H30.0112ZM29.1744 11.2774L33.213 12.6498V19.0067L30.2392 17.4366L29.1744 11.2774ZM39.0278 10.5106C39.0278 8.95962 36.4214 7.56396 33.5447 7.56396H33.5289C30.6522 7.56396 28.0458 8.95962 28.0458 10.5106L28.103 10.8919L29.2515 17.4972L28.098 18.1685L25.1127 19.9147H25.1234C25.1234 19.9147 24.4517 20.2603 24.1408 20.473C23.0038 21.2638 22.7625 22.4178 23.4226 22.8946C23.5851 21.9534 24.3273 20.9706 25.718 20.9706C26.719 20.9706 27.4827 21.4881 28.098 22.2641C28.2572 22.4601 28.4073 22.6695 28.5475 22.8946C28.72 23.1787 28.8941 23.4279 29.0658 23.668H21.376C21.9415 24.8062 22.4789 26.0116 22.4789 27.3217V44.3711C22.4789 48.4983 25.6467 50.468 29.0732 50.468C31.7219 50.468 32.0785 50.3467 33.5397 51.8055C34.9942 50.3467 35.3516 50.468 38.002 50.468C41.431 50.468 44.5947 48.4983 44.5947 44.3711V27.3217C44.5947 26.0116 45.1312 24.8062 45.6993 23.668H38.007C38.1786 23.4279 38.3519 23.1787 38.5244 22.8946C38.6671 22.6695 38.8163 22.4601 38.9722 22.2641C39.5934 21.4848 40.3546 20.9706 41.3564 20.9706C42.7454 20.9706 43.4868 21.9534 43.6518 22.8946C44.3119 22.4178 44.0731 21.2638 42.9295 20.473C42.6235 20.2603 41.951 19.9147 41.951 19.9147H41.9617L38.9722 18.1685L37.8229 17.4972L38.9722 10.8919L39.0278 10.5106Z" fill="#1A1919"></path></svg>