<svg  width="16" height="13" viewBox="0 0 16 13" fill="none" xmlns="http://www.w3.org/2000/svg"><path d="M1.51724 5.4569C1.21729 5.17123 0.742561 5.18281 0.456897 5.48276C0.171233 5.78271 0.182812 6.25744 0.482759 6.5431L1.51724 5.4569ZM15.5644 1.49388C15.8372 1.18215 15.8056 0.708329 15.4939 0.435567C15.1822 0.162806 14.7083 0.194394 14.4356 0.506122L15.5644 1.49388ZM6.25 11L5.73276 11.5431L6.29927 12.0826L6.81443 11.4939L6.25 11ZM0.482759 6.5431L5.73276 11.5431L6.76724 10.4569L1.51724 5.4569L0.482759 6.5431ZM6.81443 11.4939L15.5644 1.49388L14.4356 0.506122L5.68557 10.5061L6.81443 11.4939Z" fill="currentColor"></path></svg>